{
	"asset":{
		"generator":"Khronos glTF Blender I/O v4.1.17",
		"version":"2.0"
	},
	"scene":0,
	"scenes":[
		{
			"name":"Scene",
			"nodes":[
				0
			]
		}
	],
	"nodes":[
		{
			"mesh":0,
			"name":"thronr"
		}
	],
	"materials":[
		{
			"doubleSided":true,
			"name":"Throne",
			"pbrMetallicRoughness":{
				"baseColorFactor":[
					0.16747699677944183,
					0.12493900209665298,
					0.11044500023126602,
					1
				],
				"roughnessFactor":0.6900347471237183
			}
		},
		{
			"doubleSided":true,
			"name":"ThroneBorders",
			"pbrMetallicRoughness":{
				"baseColorFactor":[
					0.6399999856948853,
					0.448947012424469,
					0.242575004696846,
					1
				],
				"roughnessFactor":0.6900347471237183
			}
		},
		{
			"doubleSided":true,
			"emissiveFactor":[
				1,
				0.39957693219184875,
				0
			],
			"name":"ThroneInner",
			"pbrMetallicRoughness":{
				"baseColorFactor":[
					1,
					0.40197500586509705,
					0,
					1
				],
				"metallicFactor":0,
				"roughnessFactor":0.6900347471237183
			}
		}
	],
	"meshes":[
		{
			"name":"Plane.030_Plane.011",
			"primitives":[
				{
					"attributes":{
						"POSITION":0,
						"NORMAL":1,
						"TEXCOORD_0":2
					},
					"indices":3,
					"material":0
				},
				{
					"attributes":{
						"POSITION":4,
						"NORMAL":5,
						"TEXCOORD_0":6
					},
					"indices":7,
					"material":1
				},
				{
					"attributes":{
						"POSITION":8,
						"NORMAL":9,
						"TEXCOORD_0":10
					},
					"indices":11,
					"material":2
				}
			]
		}
	],
	"accessors":[
		{
			"bufferView":0,
			"componentType":5126,
			"count":818,
			"max":[
				0.25866973400115967,
				0.48770713806152344,
				0.21994157135486603
			],
			"min":[
				-0.25866973400115967,
				-0.20658504962921143,
				-0.18304172158241272
			],
			"type":"VEC3"
		},
		{
			"bufferView":1,
			"componentType":5126,
			"count":818,
			"type":"VEC3"
		},
		{
			"bufferView":2,
			"componentType":5126,
			"count":818,
			"type":"VEC2"
		},
		{
			"bufferView":3,
			"componentType":5123,
			"count":1386,
			"type":"SCALAR"
		},
		{
			"bufferView":4,
			"componentType":5126,
			"count":6318,
			"max":[
				0.2808191180229187,
				0.49730682373046875,
				0.23363253474235535
			],
			"min":[
				-0.2808191180229187,
				-0.20658504962921143,
				-0.26441189646720886
			],
			"type":"VEC3"
		},
		{
			"bufferView":5,
			"componentType":5126,
			"count":6318,
			"type":"VEC3"
		},
		{
			"bufferView":6,
			"componentType":5126,
			"count":6318,
			"type":"VEC2"
		},
		{
			"bufferView":7,
			"componentType":5123,
			"count":9882,
			"type":"SCALAR"
		},
		{
			"bufferView":8,
			"componentType":5126,
			"count":348,
			"max":[
				0.2481425255537033,
				0.48251891136169434,
				0.21558718383312225
			],
			"min":[
				-0.24557210505008698,
				-0.20658504962921143,
				-0.25704455375671387
			],
			"type":"VEC3"
		},
		{
			"bufferView":9,
			"componentType":5126,
			"count":348,
			"type":"VEC3"
		},
		{
			"bufferView":10,
			"componentType":5126,
			"count":348,
			"type":"VEC2"
		},
		{
			"bufferView":11,
			"componentType":5123,
			"count":600,
			"type":"SCALAR"
		}
	],
	"bufferViews":[
		{
			"buffer":0,
			"byteLength":9816,
			"byteOffset":0,
			"target":34962
		},
		{
			"buffer":0,
			"byteLength":9816,
			"byteOffset":9816,
			"target":34962
		},
		{
			"buffer":0,
			"byteLength":6544,
			"byteOffset":19632,
			"target":34962
		},
		{
			"buffer":0,
			"byteLength":2772,
			"byteOffset":26176,
			"target":34963
		},
		{
			"buffer":0,
			"byteLength":75816,
			"byteOffset":28948,
			"target":34962
		},
		{
			"buffer":0,
			"byteLength":75816,
			"byteOffset":104764,
			"target":34962
		},
		{
			"buffer":0,
			"byteLength":50544,
			"byteOffset":180580,
			"target":34962
		},
		{
			"buffer":0,
			"byteLength":19764,
			"byteOffset":231124,
			"target":34963
		},
		{
			"buffer":0,
			"byteLength":4176,
			"byteOffset":250888,
			"target":34962
		},
		{
			"buffer":0,
			"byteLength":4176,
			"byteOffset":255064,
			"target":34962
		},
		{
			"buffer":0,
			"byteLength":2784,
			"byteOffset":259240,
			"target":34962
		},
		{
			"buffer":0,
			"byteLength":1200,
			"byteOffset":262024,
			"target":34963
		}
	],
	"buffers":[
		{
			"byteLength":263224,
			"uri":"scene.bin"
		}
	]
}
