{
	"asset":{
		"generator":"Khronos glTF Blender I/O v4.1.17",
		"version":"2.0"
	},
	"scene":0,
	"scenes":[
		{
			"name":"Scene",
			"nodes":[
				0
			]
		}
	],
	"nodes":[
		{
			"mesh":0,
			"name":"scene"
		}
	],
	"materials":[
		{
			"doubleSided":true,
			"name":"Material.002",
			"pbrMetallicRoughness":{
				"baseColorFactor":[
					0.08050350844860077,
					0.06764400750398636,
					0.08879438042640686,
					1
				],
				"roughnessFactor":0.9127272963523865
			}
		},
		{
			"doubleSided":true,
			"name":"Material.001",
			"pbrMetallicRoughness":{
				"baseColorFactor":[
					0.06678717583417892,
					0.028546229004859924,
					0.0070468285121023655,
					1
				],
				"roughnessFactor":0.5
			}
		}
	],
	"meshes":[
		{
			"name":"jeans",
			"primitives":[
				{
					"attributes":{
						"POSITION":0,
						"NORMAL":1,
						"TEXCOORD_0":2,
						"TEXCOORD_1":3
					},
					"indices":4,
					"material":0
				},
				{
					"attributes":{
						"POSITION":5,
						"NORMAL":6,
						"TEXCOORD_0":7,
						"TEXCOORD_1":8
					},
					"indices":9,
					"material":1
				}
			]
		}
	],
	"accessors":[
		{
			"bufferView":0,
			"componentType":5126,
			"count":7683,
			"max":[
				0.07483404874801636,
				0.5687863230705261,
				0.058424726128578186
			],
			"min":[
				-0.09241867065429688,
				0.056747470051050186,
				-0.11638924479484558
			],
			"type":"VEC3"
		},
		{
			"bufferView":1,
			"componentType":5126,
			"count":7683,
			"type":"VEC3"
		},
		{
			"bufferView":2,
			"componentType":5126,
			"count":7683,
			"type":"VEC2"
		},
		{
			"bufferView":3,
			"componentType":5126,
			"count":7683,
			"type":"VEC2"
		},
		{
			"bufferView":4,
			"componentType":5123,
			"count":33492,
			"type":"SCALAR"
		},
		{
			"bufferView":5,
			"componentType":5126,
			"count":11144,
			"max":[
				0.19395536184310913,
				0.9104495048522949,
				0.06986264884471893
			],
			"min":[
				-0.1291549950838089,
				-0.0017335769953206182,
				-0.21990367770195007
			],
			"type":"VEC3"
		},
		{
			"bufferView":6,
			"componentType":5126,
			"count":11144,
			"type":"VEC3"
		},
		{
			"bufferView":7,
			"componentType":5126,
			"count":11144,
			"type":"VEC2"
		},
		{
			"bufferView":8,
			"componentType":5126,
			"count":11144,
			"type":"VEC2"
		},
		{
			"bufferView":9,
			"componentType":5123,
			"count":58053,
			"type":"SCALAR"
		}
	],
	"bufferViews":[
		{
			"buffer":0,
			"byteLength":92196,
			"byteOffset":0,
			"target":34962
		},
		{
			"buffer":0,
			"byteLength":92196,
			"byteOffset":92196,
			"target":34962
		},
		{
			"buffer":0,
			"byteLength":61464,
			"byteOffset":184392,
			"target":34962
		},
		{
			"buffer":0,
			"byteLength":61464,
			"byteOffset":245856,
			"target":34962
		},
		{
			"buffer":0,
			"byteLength":66984,
			"byteOffset":307320,
			"target":34963
		},
		{
			"buffer":0,
			"byteLength":133728,
			"byteOffset":374304,
			"target":34962
		},
		{
			"buffer":0,
			"byteLength":133728,
			"byteOffset":508032,
			"target":34962
		},
		{
			"buffer":0,
			"byteLength":89152,
			"byteOffset":641760,
			"target":34962
		},
		{
			"buffer":0,
			"byteLength":89152,
			"byteOffset":730912,
			"target":34962
		},
		{
			"buffer":0,
			"byteLength":116106,
			"byteOffset":820064,
			"target":34963
		}
	],
	"buffers":[
		{
			"byteLength":936172,
			"uri":"scene.bin"
		}
	]
}
